<?xml version="1.0" encoding="utf-8"?>
<!-- Generator: Adobe Illustrator 18.0.0, SVG Export Plug-In . SVG Version: 6.00 Build 0)  -->
<!DOCTYPE svg PUBLIC "-//W3C//DTD SVG 1.1//EN" "http://www.w3.org/Graphics/SVG/1.1/DTD/svg11.dtd">
<svg version="1.1" id="图层_1" xmlns="http://www.w3.org/2000/svg" xmlns:xlink="http://www.w3.org/1999/xlink" x="0px" y="0px"
	 viewBox="0 0 600 200" enable-background="new 0 0 600 200" xml:space="preserve">
<path fill="#231815" d="M54.9,84c-3.9,0.1-7.1-0.4-9.7-1.4c-2.6-1-4-2.9-4.1-5.9c0-3,1.2-5.3,3.8-6.8c2.6-1.5,5.8-2.3,9.7-2.4
	L54.9,84L54.9,84z M69.4,66c3.6-2.4,8.4-2,14.5,1.1c6.1,3.1,9.2,6.6,9.2,10.5c0.1,3.7-2.8,6.5-8.7,8.4c-5.8,1.9-10.8,1.9-14.7,0.1
	c-2.8-1.2-3.9-4.6-3.5-10.1C66.6,70.3,67.6,67,69.4,66L69.4,66z M100.7,102.6"/>
<g>
	<path fill="#231815" d="M100.7,111.6c0-2.9,1.2-4.8,3.8-5.9s5.8-1.7,9.7-1.7l0,0l0.2,16.5c-3.9,0.1-7.1-0.7-9.7-2.1
		C102.1,116.8,100.8,114.5,100.7,111.6"/>
	<path fill="#231815" d="M128.8,121.5c-1.6-1-2.6-4.2-3.2-9.8c-0.5-5.6,0.5-9,3.2-10.2c4-1.9,9-2,14.9-0.4c5.9,1.6,8.9,4.4,9,8.4
		c0.1,3.8-3,7.3-9,10.5C137.6,123.3,132.7,123.7,128.8,121.5L128.8,121.5z"/>
</g>
<path fill="#231815" d="M196.2,69.4c-3.9,0.1-7.1-0.4-9.7-1.4c-2.6-1-4-2.9-4.1-5.9c0-3,1.2-5.3,3.8-6.8c2.6-1.5,5.8-2.3,9.7-2.4
	L196.2,69.4L196.2,69.4z M210.7,51.4c3.6-2.4,8.4-2,14.5,1.1c6.1,3.1,9.2,6.6,9.2,10.5c0.1,3.7-2.8,6.5-8.7,8.4
	c-5.8,1.9-10.8,1.9-14.7,0.1c-2.8-1.2-3.9-4.6-3.5-10.1C207.9,55.6,209,52.3,210.7,51.4L210.7,51.4z M242.1,87.9"/>
<g>
	<path fill="#231815" d="M274,123c0-2.9,1.2-4.8,3.8-5.9c2.6-1.1,5.8-1.7,9.7-1.7l0,0l0.2,16.5c-3.9,0.1-7.1-0.7-9.7-2.1
		C275.4,128.2,274.1,126,274,123"/>
	<path fill="#231815" d="M302.1,132.9c-1.6-1-2.6-4.2-3.2-9.8c-0.5-5.6,0.5-9,3.2-10.2c4-1.9,9-2,14.9-0.4c5.9,1.6,8.9,4.4,9,8.4
		c0.1,3.8-3,7.3-9,10.5C310.9,134.7,306,135.2,302.1,132.9L302.1,132.9z"/>
</g>
<g>
	<path fill="#231815" d="M415.4,128.6c0-2.9,1.2-4.8,3.8-5.9c2.6-1.1,5.8-1.7,9.7-1.7l0,0l0.2,16.5c-3.9,0.1-7.1-0.7-9.7-2.1
		C416.8,133.8,415.5,131.5,415.4,128.6"/>
	<path fill="#231815" d="M443.5,138.5c-1.6-1-2.6-4.2-3.2-9.8c-0.5-5.6,0.5-9,3.2-10.2c4-1.9,9-2,14.9-0.4c5.9,1.6,8.9,4.4,9,8.4
		c0.1,3.8-3,7.3-9,10.5C452.3,140.3,447.3,140.7,443.5,138.5L443.5,138.5z"/>
</g>
<path fill="#231815" d="M365.6,69.4c-3.9,0.1-7.1-0.4-9.7-1.4c-2.6-1-4-2.9-4.1-5.9c0-3,1.2-5.3,3.8-6.8c2.6-1.5,5.8-2.3,9.7-2.4
	L365.6,69.4L365.6,69.4z M380.1,51.4c3.6-2.4,8.4-2,14.5,1.1c6.1,3.1,9.2,6.6,9.2,10.5c0.1,3.7-2.8,6.5-8.7,8.4
	c-5.8,1.9-10.8,1.9-14.7,0.1c-2.8-1.2-3.9-4.6-3.5-10.1C377.2,55.6,378.3,52.3,380.1,51.4L380.1,51.4z M411.4,87.9"/>
<path fill="#231815" d="M509.6,65c-3.9,0.1-7.1-0.4-9.7-1.4c-2.6-1-4-2.9-4.1-5.9c0-3,1.2-5.3,3.8-6.8c2.6-1.5,5.8-2.3,9.7-2.4
	L509.6,65L509.6,65z M524.1,47c3.6-2.4,8.4-2,14.5,1.1c6.1,3.1,9.2,6.6,9.2,10.5c0.1,3.7-2.8,6.5-8.7,8.4
	c-5.8,1.9-10.8,1.9-14.7,0.1c-2.8-1.2-3.9-4.6-3.5-10.1C521.2,51.3,522.3,48,524.1,47L524.1,47z M555.4,83.5"/>
</svg>
