<?xml version="1.0" encoding="utf-8"?>
<!-- Generator: Adobe Illustrator 18.0.0, SVG Export Plug-In . SVG Version: 6.00 Build 0)  -->
<!DOCTYPE svg PUBLIC "-//W3C//DTD SVG 1.1//EN" "http://www.w3.org/Graphics/SVG/1.1/DTD/svg11.dtd">
<svg version="1.1" id="图层_1" xmlns="http://www.w3.org/2000/svg" xmlns:xlink="http://www.w3.org/1999/xlink" x="0px" y="0px"
	 viewBox="0 0 600 200" enable-background="new 0 0 600 200" xml:space="preserve">
<path fill="#231815" d="M21.7,161.2c-3.8,0.8-7,1-9.7,0.6c-2.7-0.4-4.5-2.1-5.2-4.9c-0.6-2.9,0.2-5.4,2.4-7.4c2.2-2,5.3-3.5,9-4.3
	L21.7,161.2L21.7,161.2z M32.3,140.7c3-3.1,7.8-3.7,14.4-1.8c6.6,1.8,10.3,4.7,11.1,8.4c0.8,3.6-1.5,6.9-6.8,9.9
	c-5.4,3-10.2,4-14.4,3c-2.9-0.6-4.8-3.7-5.5-9.2C30.3,145.4,30.7,142,32.3,140.7L32.3,140.7z M70.3,170.2"/>
<g>
	<path fill="#231815" d="M105.8,180c-0.2-2.9,1-4.9,3.5-6.1c2.5-1.2,5.7-1.9,9.7-2.1l0,0l0.9,16.5c-3.9,0.2-7.1-0.4-9.8-1.7
		C107.4,185.1,106,183,105.8,180"/>
	<path fill="#231815" d="M134.3,188.8c-1.6-0.9-2.8-4.1-3.6-9.7c-0.8-5.5,0.2-9,2.8-10.3c4-2,8.9-2.3,14.9-0.9c6,1.4,9.1,4.1,9.3,8
		c0.2,3.8-2.7,7.4-8.6,10.9C143.2,190.3,138.2,190.9,134.3,188.8L134.3,188.8z"/>
</g>
<path fill="#231815" d="M175,126.1c-3.8,0.7-7.1,0.8-9.8,0.2c-2.7-0.5-4.4-2.3-5-5.1c-0.5-2.9,0.4-5.4,2.7-7.3c2.3-2,5.4-3.3,9.2-4
	L175,126.1L175,126.1z M186.4,106c3.1-2.9,7.9-3.4,14.4-1.3c6.5,2.1,10.1,5,10.8,8.8c0.7,3.7-1.7,6.9-7.2,9.7
	c-5.5,2.8-10.3,3.6-14.5,2.5c-2.9-0.7-4.6-3.8-5.2-9.4C184.3,110.7,184.8,107.2,186.4,106L186.4,106z M223.3,136.9"/>
<g>
	<path fill="#231815" d="M265.8,134.9c-0.6-2.8,0.3-5,2.6-6.5c2.3-1.5,5.4-2.7,9.3-3.5l0,0l3.2,16.2c-3.8,0.8-7.1,0.6-10-0.3
		C268,139.8,266.3,137.9,265.8,134.9"/>
	<path fill="#231815" d="M295.2,139.6c-1.7-0.7-3.3-3.7-4.9-9.1c-1.5-5.4-1.1-8.9,1.3-10.6c3.6-2.5,8.5-3.6,14.6-3
		c6.1,0.5,9.6,2.7,10.3,6.6c0.7,3.8-1.6,7.8-7,12C304.2,139.8,299.4,141.2,295.2,139.6L295.2,139.6z"/>
</g>
<path fill="#231815" d="M350.9,83.6c-3.7,1-7,1.3-9.7,1c-2.7-0.3-4.5-1.9-5.4-4.7c-0.8-2.9-0.1-5.4,2.1-7.5c2.2-2.1,5.1-3.7,8.8-4.7
	L350.9,83.6L350.9,83.6z M360.6,62.6c2.9-3.2,7.6-4,14.3-2.4c6.7,1.6,10.5,4.2,11.5,7.9c0.9,3.6-1.2,7-6.4,10.2
	c-5.2,3.2-10,4.4-14.3,3.6c-3-0.5-4.9-3.5-5.9-9C358.9,67.5,359.2,64,360.6,62.6L360.6,62.6z M399.9,90.5"/>
<g>
	<path fill="#231815" d="M442.1,85.3c-0.8-2.8-0.1-5,2.1-6.7s5.2-3.1,9-4.2l0,0l4.5,15.9c-3.7,1-7,1.2-10,0.4
		C444.7,89.9,442.9,88.1,442.1,85.3"/>
	<path fill="#231815" d="M471.7,87.6c-1.8-0.5-3.6-3.4-5.6-8.7c-2-5.2-1.8-8.8,0.4-10.7c3.4-2.8,8.2-4.2,14.3-4.2
		c6.1,0,9.7,2,10.8,5.8c1,3.7-1,7.9-6,12.5C480.7,87.1,476,88.9,471.7,87.6L471.7,87.6z"/>
</g>
<path fill="#231815" d="M525.6,30c-3.8,0.7-7,0.8-9.8,0.3c-2.7-0.5-4.4-2.2-5.1-5.1c-0.6-2.9,0.3-5.4,2.6-7.4c2.3-2,5.3-3.3,9.1-4
	L525.6,30L525.6,30z M536.7,9.8c3.1-3,7.9-3.5,14.4-1.4c6.5,2,10.2,4.9,10.9,8.7c0.7,3.6-1.7,6.9-7.1,9.7
	c-5.4,2.9-10.3,3.7-14.5,2.7c-2.9-0.7-4.7-3.8-5.3-9.4C534.7,14.5,535.2,11,536.7,9.8L536.7,9.8z M573.9,40.3"/>
</svg>
